<svg xmlns="http://www.w3.org/2000/svg" viewBox="0 0 100 100" width="120" height="120" role="img">
  <rect x="1" y="1" width="98" height="98" rx="14" fill="#ffffff" stroke="#e2e6ea" stroke-width="1.5"/>
  <defs>
    <marker id="ah" markerWidth="6" markerHeight="6" refX="4.6" refY="2.5" orient="auto">
      <path d="M0 0 L5 2.5 L0 5 Z" fill="#555"/>
    </marker>
  </defs>

  <!-- ===== Architecture A (left cell) ===== -->
  <g stroke="#555" stroke-width="1.4" fill="none" marker-end="url(#ah)">
    <path d="M22 22 L17 38"/>
    <path d="M22 22 L29 38"/>
    <path d="M17 46 L24 62"/>
    <path d="M29 46 L24 62"/>
    <path d="M24 70 L24 80"/>
  </g>
  <circle cx="22" cy="20" r="4" fill="#cfd6dd" stroke="#6b7785" stroke-width="1.2"/>
  <rect x="12.5" y="38" width="9" height="8" rx="2" fill="#1f77b4" stroke="#14517d" stroke-width="1"/>
  <rect x="24.5" y="38" width="9" height="8" rx="2" fill="#d62728" stroke="#8f1a1a" stroke-width="1"/>
  <rect x="19.5" y="62" width="9" height="8" rx="2" fill="#2ca02c" stroke="#1c6b1c" stroke-width="1"/>
  <circle cx="24" cy="84" r="4" fill="#9467bd" stroke="#5f3f80" stroke-width="1.2"/>

  <!-- ===== Architecture B (right cell) ===== -->
  <g stroke="#555" stroke-width="1.4" fill="none" marker-end="url(#ah)">
    <path d="M78 22 L73 38"/>
    <path d="M78 22 L85 38"/>
    <path d="M71 46 L78 62"/>
    <path d="M85 46 L78 62"/>
    <path d="M78 70 L78 80"/>
  </g>
  <circle cx="78" cy="20" r="4" fill="#cfd6dd" stroke="#6b7785" stroke-width="1.2"/>
  <rect x="66.5" y="38" width="9" height="8" rx="2" fill="#ff7f0e" stroke="#a9530a" stroke-width="1"/>
  <rect x="80.5" y="38" width="9" height="8" rx="2" fill="#17becf" stroke="#0e7e8a" stroke-width="1"/>
  <rect x="73.5" y="62" width="9" height="8" rx="2" fill="#1f77b4" stroke="#14517d" stroke-width="1"/>
  <circle cx="78" cy="84" r="4" fill="#9467bd" stroke="#5f3f80" stroke-width="1.2"/>

  <!-- ===== Optimal-transport matching (dashed lines) ===== -->
  <g stroke="#d62728" stroke-width="1.1" stroke-dasharray="2.5 2" opacity="0.8">
    <path d="M22 20 L78 20"/>
    <path d="M17 42 L71 42"/>
    <path d="M29 42 L85 42"/>
    <path d="M24 66 L78 66"/>
    <path d="M24 84 L78 84"/>
  </g>
  <!-- transport coupling weight markers (diamonds at midpoints) -->
  <g fill="#ff7f0e" stroke="#a9530a" stroke-width="0.6">
    <path d="M50 20 l2 2 l-2 2 l-2 -2 z"/>
    <path d="M44 42 l1.6 1.6 l-1.6 1.6 l-1.6 -1.6 z"/>
    <path d="M57 42 l2.2 2.2 l-2.2 2.2 l-2.2 -2.2 z"/>
    <path d="M51 66 l1.8 1.8 l-1.8 1.8 l-1.8 -1.8 z"/>
  </g>
</svg>
