<svg xmlns="http://www.w3.org/2000/svg" viewBox="0 0 100 100" width="120" height="120" role="img">
  <rect x="1" y="1" width="98" height="98" rx="14" fill="#ffffff" stroke="#e2e6ea" stroke-width="1.5"/>
  <defs>
    <linearGradient id="band27" x1="0" y1="0" x2="0" y2="1">
      <stop offset="0" stop-color="#1f77b4" stop-opacity="0.30"/>
      <stop offset="1" stop-color="#1f77b4" stop-opacity="0.10"/>
    </linearGradient>
  </defs>

  <!-- axes -->
  <line x1="18" y1="78" x2="86" y2="78" stroke="#555" stroke-width="1"/>
  <line x1="18" y1="78" x2="18" y2="20" stroke="#555" stroke-width="1"/>
  <!-- x ticks (0..1) -->
  <line x1="18" y1="78" x2="18" y2="81" stroke="#555" stroke-width="1"/>
  <line x1="35" y1="78" x2="35" y2="81" stroke="#555" stroke-width="1"/>
  <line x1="52" y1="78" x2="52" y2="81" stroke="#555" stroke-width="1"/>
  <line x1="69" y1="78" x2="69" y2="81" stroke="#555" stroke-width="1"/>
  <line x1="86" y1="78" x2="86" y2="81" stroke="#555" stroke-width="1"/>
  <!-- y ticks -->
  <line x1="15" y1="64" x2="18" y2="64" stroke="#555" stroke-width="1"/>
  <line x1="15" y1="48" x2="18" y2="48" stroke="#555" stroke-width="1"/>
  <line x1="15" y1="32" x2="18" y2="32" stroke="#555" stroke-width="1"/>

  <!-- GP confidence band -->
  <path d="M18 58 C30 40 42 30 52 34 C64 39 74 50 86 44 L86 60 C74 64 64 55 52 50 C42 46 30 56 18 70 Z" fill="url(#band27)"/>

  <!-- GP mean curve (blue) -->
  <path d="M18 64 C30 46 42 36 52 42 C64 49 74 52 86 52" fill="none" stroke="#1f77b4" stroke-width="3" stroke-linecap="round"/>

  <!-- chosen integration points (red) with vertical stems -->
  <line x1="27" y1="78" x2="27" y2="55" stroke="#d62728" stroke-width="1"/>
  <circle cx="27" cy="55" r="2.4" fill="#d62728"/>
  <line x1="38" y1="78" x2="38" y2="40" stroke="#d62728" stroke-width="1"/>
  <circle cx="38" cy="40" r="2.4" fill="#d62728"/>
  <line x1="52" y1="78" x2="52" y2="42" stroke="#d62728" stroke-width="1"/>
  <circle cx="52" cy="42" r="2.4" fill="#d62728"/>
  <line x1="63" y1="78" x2="63" y2="49" stroke="#d62728" stroke-width="1"/>
  <circle cx="63" cy="49" r="2.4" fill="#d62728"/>
  <line x1="79" y1="78" x2="79" y2="52" stroke="#d62728" stroke-width="1"/>
  <circle cx="79" cy="52" r="2.4" fill="#d62728"/>

  <!-- thermodynamic-integration path inset (corner) -->
  <rect x="60" y="22" width="26" height="20" rx="2" fill="#ffffff" stroke="#bbbbbb" stroke-width="0.8"/>
  <line x1="63" y1="39" x2="83" y2="39" stroke="#999" stroke-width="0.7"/>
  <line x1="63" y1="39" x2="63" y2="25" stroke="#999" stroke-width="0.7"/>
  <path d="M63 38 C68 37 71 30 74 28 C77 26 80 25 83 25" fill="none" stroke="#9467bd" stroke-width="2" stroke-linecap="round"/>
  <circle cx="63" cy="38" r="1.4" fill="#2ca02c"/>
  <circle cx="83" cy="25" r="1.4" fill="#ff7f0e"/>
</svg>
