<svg xmlns="http://www.w3.org/2000/svg" viewBox="0 0 100 100" width="120" height="120" role="img">
  <rect x="1" y="1" width="98" height="98" rx="14" fill="#ffffff" stroke="#e2e6ea" stroke-width="1.5"/>

  <!-- ===== Group A dashed cluster (top-left) ===== -->
  <rect x="11" y="14" width="40" height="34" rx="5" fill="#1f77b4" fill-opacity="0.06" stroke="#1f77b4" stroke-width="1.2" stroke-dasharray="3 2"/>

  <!-- ===== Group B dashed cluster (bottom-right) ===== -->
  <rect x="49" y="50" width="40" height="34" rx="5" fill="#ff7f0e" fill-opacity="0.06" stroke="#ff7f0e" stroke-width="1.2" stroke-dasharray="3 2"/>

  <!-- ===== Edges: hub A to its task nodes ===== -->
  <line x1="31" y1="31" x2="20" y2="22" stroke="#1f77b4" stroke-width="1.2"/>
  <line x1="31" y1="31" x2="43" y2="21" stroke="#1f77b4" stroke-width="1.2"/>
  <line x1="31" y1="31" x2="20" y2="42" stroke="#1f77b4" stroke-width="1.2"/>
  <line x1="31" y1="31" x2="43" y2="41" stroke="#1f77b4" stroke-width="1.2"/>

  <!-- ===== Edges: hub B to its task nodes ===== -->
  <line x1="69" y1="67" x2="58" y2="58" stroke="#ff7f0e" stroke-width="1.2"/>
  <line x1="69" y1="67" x2="81" y2="58" stroke="#ff7f0e" stroke-width="1.2"/>
  <line x1="69" y1="67" x2="58" y2="78" stroke="#ff7f0e" stroke-width="1.2"/>
  <line x1="69" y1="67" x2="81" y2="78" stroke="#ff7f0e" stroke-width="1.2"/>

  <!-- ===== Shared-knowledge hubs ===== -->
  <circle cx="31" cy="31" r="4.6" fill="#1f77b4" stroke="#15527d" stroke-width="1"/>
  <circle cx="69" cy="67" r="4.6" fill="#ff7f0e" stroke="#b85a06" stroke-width="1"/>

  <!-- ===== Group A task nodes with multi-label pill rows ===== -->
  <rect x="13" y="17" width="13" height="9" rx="1.6" fill="#ffffff" stroke="#1f77b4" stroke-width="1"/>
  <rect x="14.2" y="18.6" width="3.2" height="2" rx="0.8" fill="#d62728"/>
  <rect x="18" y="18.6" width="3.2" height="2" rx="0.8" fill="#2ca02c"/>
  <rect x="21.8" y="18.6" width="3.2" height="2" rx="0.8" fill="#9467bd"/>
  <rect x="14.2" y="21.6" width="3.2" height="2" rx="0.8" fill="#17becf"/>
  <rect x="18" y="21.6" width="3.2" height="2" rx="0.8" fill="#d62728"/>

  <rect x="37" y="16" width="13" height="9" rx="1.6" fill="#ffffff" stroke="#1f77b4" stroke-width="1"/>
  <rect x="38.2" y="17.6" width="3.2" height="2" rx="0.8" fill="#2ca02c"/>
  <rect x="42" y="17.6" width="3.2" height="2" rx="0.8" fill="#9467bd"/>
  <rect x="45.8" y="17.6" width="3.2" height="2" rx="0.8" fill="#d62728"/>
  <rect x="38.2" y="20.6" width="3.2" height="2" rx="0.8" fill="#17becf"/>
  <rect x="42" y="20.6" width="3.2" height="2" rx="0.8" fill="#2ca02c"/>

  <rect x="13" y="37" width="13" height="9" rx="1.6" fill="#ffffff" stroke="#1f77b4" stroke-width="1"/>
  <rect x="14.2" y="38.6" width="3.2" height="2" rx="0.8" fill="#9467bd"/>
  <rect x="18" y="38.6" width="3.2" height="2" rx="0.8" fill="#d62728"/>
  <rect x="21.8" y="38.6" width="3.2" height="2" rx="0.8" fill="#2ca02c"/>
  <rect x="14.2" y="41.6" width="3.2" height="2" rx="0.8" fill="#d62728"/>
  <rect x="18" y="41.6" width="3.2" height="2" rx="0.8" fill="#17becf"/>

  <rect x="37" y="36" width="13" height="9" rx="1.6" fill="#ffffff" stroke="#1f77b4" stroke-width="1"/>
  <rect x="38.2" y="37.6" width="3.2" height="2" rx="0.8" fill="#17becf"/>
  <rect x="42" y="37.6" width="3.2" height="2" rx="0.8" fill="#2ca02c"/>
  <rect x="45.8" y="37.6" width="3.2" height="2" rx="0.8" fill="#9467bd"/>
  <rect x="38.2" y="40.6" width="3.2" height="2" rx="0.8" fill="#d62728"/>
  <rect x="42" y="40.6" width="3.2" height="2" rx="0.8" fill="#9467bd"/>

  <!-- ===== Group B task nodes with multi-label pill rows ===== -->
  <rect x="51" y="53" width="13" height="9" rx="1.6" fill="#ffffff" stroke="#ff7f0e" stroke-width="1"/>
  <rect x="52.2" y="54.6" width="3.2" height="2" rx="0.8" fill="#ff7f0e"/>
  <rect x="56" y="54.6" width="3.2" height="2" rx="0.8" fill="#1f77b4"/>
  <rect x="59.8" y="54.6" width="3.2" height="2" rx="0.8" fill="#2ca02c"/>
  <rect x="52.2" y="57.6" width="3.2" height="2" rx="0.8" fill="#1f77b4"/>
  <rect x="56" y="57.6" width="3.2" height="2" rx="0.8" fill="#ff7f0e"/>

  <rect x="75" y="53" width="13" height="9" rx="1.6" fill="#ffffff" stroke="#ff7f0e" stroke-width="1"/>
  <rect x="76.2" y="54.6" width="3.2" height="2" rx="0.8" fill="#1f77b4"/>
  <rect x="80" y="54.6" width="3.2" height="2" rx="0.8" fill="#ff7f0e"/>
  <rect x="83.8" y="54.6" width="3.2" height="2" rx="0.8" fill="#1f77b4"/>
  <rect x="76.2" y="57.6" width="3.2" height="2" rx="0.8" fill="#2ca02c"/>
  <rect x="80" y="57.6" width="3.2" height="2" rx="0.8" fill="#ff7f0e"/>

  <rect x="51" y="73" width="13" height="9" rx="1.6" fill="#ffffff" stroke="#ff7f0e" stroke-width="1"/>
  <rect x="52.2" y="74.6" width="3.2" height="2" rx="0.8" fill="#2ca02c"/>
  <rect x="56" y="74.6" width="3.2" height="2" rx="0.8" fill="#ff7f0e"/>
  <rect x="59.8" y="74.6" width="3.2" height="2" rx="0.8" fill="#1f77b4"/>
  <rect x="52.2" y="77.6" width="3.2" height="2" rx="0.8" fill="#ff7f0e"/>
  <rect x="56" y="77.6" width="3.2" height="2" rx="0.8" fill="#1f77b4"/>

  <rect x="75" y="73" width="13" height="9" rx="1.6" fill="#ffffff" stroke="#ff7f0e" stroke-width="1"/>
  <rect x="76.2" y="74.6" width="3.2" height="2" rx="0.8" fill="#ff7f0e"/>
  <rect x="80" y="74.6" width="3.2" height="2" rx="0.8" fill="#2ca02c"/>
  <rect x="83.8" y="74.6" width="3.2" height="2" rx="0.8" fill="#ff7f0e"/>
  <rect x="76.2" y="77.6" width="3.2" height="2" rx="0.8" fill="#1f77b4"/>
  <rect x="80" y="77.6" width="3.2" height="2" rx="0.8" fill="#2ca02c"/>

  <!-- ===== Label-correlation grid inset (bottom-left corner) ===== -->
  <rect x="12" y="67" width="21" height="17" rx="2" fill="#ffffff" stroke="#555" stroke-width="1"/>
  <rect x="13" y="68" width="4.75" height="3.75" fill="#9467bd" fill-opacity="0.85"/>
  <rect x="17.75" y="68" width="4.75" height="3.75" fill="#9467bd" fill-opacity="0.3"/>
  <rect x="22.5" y="68" width="4.75" height="3.75" fill="#9467bd" fill-opacity="0.55"/>
  <rect x="27.25" y="68" width="4.75" height="3.75" fill="#9467bd" fill-opacity="0.2"/>
  <rect x="13" y="71.75" width="4.75" height="3.75" fill="#9467bd" fill-opacity="0.3"/>
  <rect x="17.75" y="71.75" width="4.75" height="3.75" fill="#9467bd" fill-opacity="0.85"/>
  <rect x="22.5" y="71.75" width="4.75" height="3.75" fill="#9467bd" fill-opacity="0.2"/>
  <rect x="27.25" y="71.75" width="4.75" height="3.75" fill="#9467bd" fill-opacity="0.6"/>
  <rect x="13" y="75.5" width="4.75" height="3.75" fill="#9467bd" fill-opacity="0.55"/>
  <rect x="17.75" y="75.5" width="4.75" height="3.75" fill="#9467bd" fill-opacity="0.2"/>
  <rect x="22.5" y="75.5" width="4.75" height="3.75" fill="#9467bd" fill-opacity="0.85"/>
  <rect x="27.25" y="75.5" width="4.75" height="3.75" fill="#9467bd" fill-opacity="0.4"/>
  <rect x="13" y="79.25" width="4.75" height="3.75" fill="#9467bd" fill-opacity="0.2"/>
  <rect x="17.75" y="79.25" width="4.75" height="3.75" fill="#9467bd" fill-opacity="0.6"/>
  <rect x="22.5" y="79.25" width="4.75" height="3.75" fill="#9467bd" fill-opacity="0.4"/>
  <rect x="27.25" y="79.25" width="4.75" height="3.75" fill="#9467bd" fill-opacity="0.85"/>
</svg>
