<svg xmlns="http://www.w3.org/2000/svg" viewBox="0 0 100 100" width="120" height="120" role="img">
  <rect x="1" y="1" width="98" height="98" rx="14" fill="#ffffff" stroke="#e2e6ea" stroke-width="1.5"/>
  <defs>
    <radialGradient id="sph" cx="38%" cy="35%" r="70%">
      <stop offset="0%" stop-color="#d62728" stop-opacity="0.18"/>
      <stop offset="100%" stop-color="#d62728" stop-opacity="0.04"/>
    </radialGradient>
  </defs>

  <!-- faint 3D axes -->
  <line x1="22" y1="78" x2="22" y2="20" stroke="#888" stroke-width="1"/>
  <line x1="22" y1="78" x2="82" y2="78" stroke="#888" stroke-width="1"/>
  <line x1="22" y1="78" x2="44" y2="60" stroke="#aaa" stroke-width="1"/>
  <!-- ticks -->
  <line x1="20" y1="64" x2="22" y2="64" stroke="#aaa" stroke-width="0.8"/>
  <line x1="20" y1="48" x2="22" y2="48" stroke="#aaa" stroke-width="0.8"/>
  <line x1="20" y1="32" x2="22" y2="32" stroke="#aaa" stroke-width="0.8"/>
  <line x1="40" y1="78" x2="40" y2="80" stroke="#aaa" stroke-width="0.8"/>
  <line x1="58" y1="78" x2="58" y2="80" stroke="#aaa" stroke-width="0.8"/>
  <line x1="74" y1="78" x2="74" y2="80" stroke="#aaa" stroke-width="0.8"/>

  <!-- sphere 1 (large, lower-left cluster) -->
  <circle cx="37" cy="58" r="12" fill="url(#sph)" stroke="#d62728" stroke-width="1.4"/>
  <ellipse cx="37" cy="58" rx="12" ry="4.4" fill="none" stroke="#d62728" stroke-width="0.8" stroke-opacity="0.6"/>
  <ellipse cx="37" cy="58" rx="4.4" ry="12" fill="none" stroke="#d62728" stroke-width="0.8" stroke-opacity="0.6"/>
  <circle cx="36" cy="57" r="2.3" fill="#1f77b4" stroke="#0d3c61" stroke-width="0.5"/>
  <circle cx="40" cy="61" r="1.3" fill="#1f77b4"/>
  <circle cx="33" cy="60" r="1.3" fill="#1f77b4"/>
  <circle cx="39" cy="54" r="1.2" fill="#1f77b4"/>
  <circle cx="34" cy="55" r="1.1" fill="#1f77b4"/>

  <!-- sphere 2 (upper-right cluster) -->
  <circle cx="64" cy="40" r="10" fill="url(#sph)" stroke="#d62728" stroke-width="1.4"/>
  <ellipse cx="64" cy="40" rx="10" ry="3.6" fill="none" stroke="#d62728" stroke-width="0.8" stroke-opacity="0.6"/>
  <ellipse cx="64" cy="40" rx="3.6" ry="10" fill="none" stroke="#d62728" stroke-width="0.8" stroke-opacity="0.6"/>
  <circle cx="64" cy="39" r="2.3" fill="#1f77b4" stroke="#0d3c61" stroke-width="0.5"/>
  <circle cx="67" cy="42" r="1.3" fill="#1f77b4"/>
  <circle cx="61" cy="42" r="1.2" fill="#1f77b4"/>
  <circle cx="66" cy="37" r="1.1" fill="#1f77b4"/>

  <!-- sphere 3 (small, right) -->
  <circle cx="73" cy="62" r="7.5" fill="url(#sph)" stroke="#d62728" stroke-width="1.4"/>
  <ellipse cx="73" cy="62" rx="7.5" ry="2.8" fill="none" stroke="#d62728" stroke-width="0.8" stroke-opacity="0.6"/>
  <ellipse cx="73" cy="62" rx="2.8" ry="7.5" fill="none" stroke="#d62728" stroke-width="0.8" stroke-opacity="0.6"/>
  <circle cx="73" cy="61" r="2" fill="#1f77b4" stroke="#0d3c61" stroke-width="0.5"/>
  <circle cx="75" cy="64" r="1.2" fill="#1f77b4"/>
  <circle cx="71" cy="63" r="1.1" fill="#1f77b4"/>

  <!-- sphere 4 (small, upper-left) -->
  <circle cx="44" cy="30" r="6.5" fill="url(#sph)" stroke="#d62728" stroke-width="1.4"/>
  <ellipse cx="44" cy="30" rx="6.5" ry="2.4" fill="none" stroke="#d62728" stroke-width="0.8" stroke-opacity="0.6"/>
  <ellipse cx="44" cy="30" rx="2.4" ry="6.5" fill="none" stroke="#d62728" stroke-width="0.8" stroke-opacity="0.6"/>
  <circle cx="44" cy="29" r="1.9" fill="#1f77b4" stroke="#0d3c61" stroke-width="0.5"/>
  <circle cx="46" cy="32" r="1.1" fill="#1f77b4"/>
  <circle cx="42" cy="31" r="1" fill="#1f77b4"/>
</svg>
