<svg xmlns="http://www.w3.org/2000/svg" viewBox="0 0 100 100" width="120" height="120" role="img">
  <rect x="1" y="1" width="98" height="98" rx="14" fill="#ffffff" stroke="#e2e6ea" stroke-width="1.5"/>
  <defs>
    <linearGradient id="thumb" x1="0" y1="0" x2="1" y2="1">
      <stop offset="0" stop-color="#cfe3f3"/>
      <stop offset="1" stop-color="#8fb8d6"/>
    </linearGradient>
  </defs>

  <!-- sample instance thumbnail -->
  <rect x="13" y="34" width="22" height="22" rx="2.5" fill="url(#thumb)" stroke="#1f77b4" stroke-width="1.6"/>
  <circle cx="20" cy="41" r="2.6" fill="#ff7f0e"/>
  <path d="M14 54 L20 47 L25 51 L30 44 L34 50 L34 56 Z" fill="#2ca02c" opacity="0.85"/>
  <path d="M14 54 L20 47 L25 51 L30 44 L34 50" fill="none" stroke="#1d6b1d" stroke-width="1" opacity="0.6"/>

  <!-- arrows from thumbnail to label stack -->
  <line x1="36" y1="40" x2="48" y2="34" stroke="#555" stroke-width="1.2"/>
  <polygon points="48,34 44.5,33.6 46,36.8" fill="#555"/>
  <line x1="36" y1="45" x2="48" y2="45" stroke="#555" stroke-width="1.2"/>
  <polygon points="48,45 44.6,43.4 44.6,46.6" fill="#555"/>
  <line x1="36" y1="50" x2="48" y2="56" stroke="#555" stroke-width="1.2"/>
  <polygon points="48,56 46,53.2 44.5,56.4" fill="#555"/>

  <!-- label tags / pills (checked = assigned) -->
  <rect x="49" y="29" width="26" height="9" rx="4.5" fill="#d62728" opacity="0.9"/>
  <circle cx="53.5" cy="33.5" r="2.6" fill="#ffffff"/>
  <path d="M52 33.6 L53.2 34.9 L55.2 32.3" fill="none" stroke="#d62728" stroke-width="1.3" stroke-linecap="round"/>

  <rect x="49" y="40" width="26" height="9" rx="4.5" fill="#2ca02c" opacity="0.9"/>
  <circle cx="53.5" cy="44.5" r="2.6" fill="#ffffff"/>
  <path d="M52 44.6 L53.2 45.9 L55.2 43.3" fill="none" stroke="#2ca02c" stroke-width="1.3" stroke-linecap="round"/>

  <rect x="49" y="51" width="26" height="9" rx="4.5" fill="#cfd6dd" stroke="#9aa5af" stroke-width="1"/>
  <circle cx="53.5" cy="55.5" r="2.6" fill="#ffffff" stroke="#9aa5af" stroke-width="0.8"/>

  <rect x="49" y="62" width="26" height="9" rx="4.5" fill="#ff7f0e" opacity="0.9"/>
  <circle cx="53.5" cy="66.5" r="2.6" fill="#ffffff"/>
  <path d="M52 66.6 L53.2 67.9 L55.2 65.3" fill="none" stroke="#ff7f0e" stroke-width="1.3" stroke-linecap="round"/>

  <rect x="49" y="73" width="26" height="9" rx="4.5" fill="#dfe4ea" stroke="#9aa5af" stroke-width="1"/>
  <circle cx="53.5" cy="77.5" r="2.6" fill="#ffffff" stroke="#9aa5af" stroke-width="0.8"/>

  <!-- label-correlation matrix inset -->
  <rect x="62" y="58" width="10" height="10" fill="#9467bd" opacity="0.55"/>
  <rect x="72" y="58" width="10" height="10" fill="#9467bd" opacity="0.2"/>
  <rect x="82" y="58" width="10" height="10" fill="#9467bd" opacity="0.85"/>
  <rect x="62" y="68" width="10" height="10" fill="#9467bd" opacity="0.25"/>
  <rect x="72" y="68" width="10" height="10" fill="#9467bd" opacity="0.7"/>
  <rect x="82" y="68" width="10" height="10" fill="#9467bd" opacity="0.45"/>
  <rect x="62" y="78" width="10" height="10" fill="#9467bd" opacity="0.85"/>
  <rect x="72" y="78" width="10" height="10" fill="#9467bd" opacity="0.3"/>
  <rect x="82" y="78" width="10" height="10" fill="#9467bd" opacity="0.6"/>
  <rect x="62" y="58" width="30" height="30" fill="none" stroke="#5b3b86" stroke-width="1.3"/>
  <line x1="72" y1="58" x2="72" y2="88" stroke="#ffffff" stroke-width="0.8"/>
  <line x1="82" y1="58" x2="82" y2="88" stroke="#ffffff" stroke-width="0.8"/>
  <line x1="62" y1="68" x2="92" y2="68" stroke="#ffffff" stroke-width="0.8"/>
  <line x1="62" y1="78" x2="92" y2="78" stroke="#ffffff" stroke-width="0.8"/>
</svg>
